<svg xmlns="http://www.w3.org/2000/svg" xmlns:xlink="http://www.w3.org/1999/xlink" width="444" zoomAndPan="magnify" viewBox="0 0 333 137.249994" height="183" preserveAspectRatio="xMidYMid meet" version="1.0"><defs><g/><clipPath id="d118d20b9e"><path d="M 38.277344 43.550781 L 118.972656 43.550781 L 118.972656 98.105469 L 38.277344 98.105469 Z M 38.277344 43.550781 " clip-rule="nonzero"/></clipPath><clipPath id="2da9be67bd"><path d="M 56.464844 43.550781 L 118.695312 43.550781 L 100.511719 98.105469 L 38.277344 98.105469 L 56.464844 43.550781 " clip-rule="nonzero"/></clipPath><clipPath id="ddd01e7556"><path d="M 71.25 51.53125 L 85.722656 51.53125 L 85.722656 63.59375 L 71.25 63.59375 Z M 59.1875 63.59375 L 97.785156 63.59375 L 97.785156 78.066406 L 59.1875 78.066406 Z M 71.25 78.066406 L 85.722656 78.066406 L 85.722656 90.128906 L 71.25 90.128906 Z M 71.25 78.066406 " clip-rule="nonzero"/></clipPath></defs><g clip-path="url(#d118d20b9e)"><g clip-path="url(#2da9be67bd)"><path fill="#ff0707" d="M 38.277344 43.550781 L 118.972656 43.550781 L 118.972656 98.105469 L 38.277344 98.105469 Z M 38.277344 43.550781 " fill-opacity="1" fill-rule="nonzero"/></g></g><g clip-path="url(#ddd01e7556)"><path fill="#ffffff" d="M 59.1875 51.53125 L 97.785156 51.53125 L 97.785156 90.128906 L 59.1875 90.128906 Z M 59.1875 51.53125 " fill-opacity="1" fill-rule="nonzero"/></g><g fill="#000000" fill-opacity="1"><g transform="translate(118.69476, 89.641621)"><g><path d="M 13.34375 -30.625 C 16.125 -30.625 18.4375 -30.285156 20.28125 -29.609375 C 22.125 -28.929688 23.507812 -27.921875 24.4375 -26.578125 C 25.363281 -25.242188 25.828125 -23.578125 25.828125 -21.578125 C 25.828125 -20.335938 25.617188 -19.207031 25.203125 -18.1875 C 24.785156 -17.164062 24.1875 -16.253906 23.40625 -15.453125 C 22.632812 -14.648438 21.710938 -13.945312 20.640625 -13.34375 L 29.5625 0 L 20.171875 0 L 13.6875 -11.140625 L 11.578125 -11.140625 L 11.578125 0 L 3.3125 0 L 3.3125 -30.625 Z M 13.21875 -24.359375 L 11.578125 -24.359375 L 11.578125 -17.375 L 13.140625 -17.375 C 14.410156 -17.375 15.445312 -17.648438 16.25 -18.203125 C 17.0625 -18.765625 17.46875 -19.765625 17.46875 -21.203125 C 17.46875 -22.191406 17.132812 -22.960938 16.46875 -23.515625 C 15.800781 -24.078125 14.71875 -24.359375 13.21875 -24.359375 Z M 13.21875 -24.359375 "/></g></g></g><g fill="#000000" fill-opacity="1"><g transform="translate(143.437186, 89.641621)"><g><path d="M 22.109375 0 L 20.59375 -5.734375 L 10.640625 -5.734375 L 9.09375 0 L 0 0 L 10 -30.75 L 21.03125 -30.75 L 31.15625 0 Z M 18.875 -12.53125 L 17.5625 -17.5625 C 17.414062 -18.101562 17.207031 -18.878906 16.9375 -19.890625 C 16.675781 -20.898438 16.414062 -21.945312 16.15625 -23.03125 C 15.90625 -24.113281 15.707031 -25.003906 15.5625 -25.703125 C 15.4375 -25.003906 15.257812 -24.140625 15.03125 -23.109375 C 14.800781 -22.085938 14.5625 -21.070312 14.3125 -20.0625 C 14.070312 -19.0625 13.863281 -18.226562 13.6875 -17.5625 L 12.359375 -12.53125 Z M 18.875 -12.53125 "/></g></g></g><g fill="#000000" fill-opacity="1"><g transform="translate(170.295404, 89.641621)"><g><path d="M 16.65625 0 L 10.390625 -22.0625 L 10.203125 -22.0625 C 10.253906 -21.488281 10.3125 -20.710938 10.375 -19.734375 C 10.4375 -18.753906 10.492188 -17.695312 10.546875 -16.5625 C 10.609375 -15.4375 10.640625 -14.347656 10.640625 -13.296875 L 10.640625 0 L 3.3125 0 L 3.3125 -30.625 L 14.328125 -30.625 L 20.71875 -8.890625 L 20.890625 -8.890625 L 27.15625 -30.625 L 38.1875 -30.625 L 38.1875 0 L 30.59375 0 L 30.59375 -13.421875 C 30.59375 -14.390625 30.609375 -15.425781 30.640625 -16.53125 C 30.671875 -17.644531 30.710938 -18.691406 30.765625 -19.671875 C 30.816406 -20.660156 30.863281 -21.441406 30.90625 -22.015625 L 30.71875 -22.015625 L 24.53125 0 Z M 16.65625 0 "/></g></g></g><g fill="#000000" fill-opacity="1"><g transform="translate(207.481164, 89.641621)"><g><path d="M 31.96875 -15.359375 C 31.96875 -12.992188 31.679688 -10.84375 31.109375 -8.90625 C 30.546875 -6.976562 29.664062 -5.316406 28.46875 -3.921875 C 27.269531 -2.523438 25.726562 -1.453125 23.84375 -0.703125 C 21.957031 0.046875 19.703125 0.421875 17.078125 0.421875 C 14.503906 0.421875 12.273438 0.046875 10.390625 -0.703125 C 8.515625 -1.453125 6.96875 -2.519531 5.75 -3.90625 C 4.539062 -5.289062 3.640625 -6.953125 3.046875 -8.890625 C 2.460938 -10.835938 2.171875 -13.007812 2.171875 -15.40625 C 2.171875 -18.582031 2.695312 -21.347656 3.75 -23.703125 C 4.8125 -26.054688 6.445312 -27.878906 8.65625 -29.171875 C 10.863281 -30.460938 13.679688 -31.109375 17.109375 -31.109375 C 20.609375 -31.109375 23.445312 -30.457031 25.625 -29.15625 C 27.8125 -27.863281 29.414062 -26.035156 30.4375 -23.671875 C 31.457031 -21.316406 31.96875 -18.546875 31.96875 -15.359375 Z M 10.890625 -15.359375 C 10.890625 -13.515625 11.097656 -11.925781 11.515625 -10.59375 C 11.941406 -9.269531 12.609375 -8.25 13.515625 -7.53125 C 14.421875 -6.820312 15.609375 -6.46875 17.078125 -6.46875 C 18.597656 -6.46875 19.804688 -6.820312 20.703125 -7.53125 C 21.609375 -8.25 22.257812 -9.269531 22.65625 -10.59375 C 23.050781 -11.925781 23.25 -13.515625 23.25 -15.359375 C 23.25 -18.117188 22.785156 -20.300781 21.859375 -21.90625 C 20.941406 -23.519531 19.359375 -24.328125 17.109375 -24.328125 C 15.617188 -24.328125 14.414062 -23.960938 13.5 -23.234375 C 12.582031 -22.503906 11.914062 -21.46875 11.5 -20.125 C 11.09375 -18.789062 10.890625 -17.203125 10.890625 -15.359375 Z M 10.890625 -15.359375 "/></g></g></g><g fill="#000000" fill-opacity="1"><g transform="translate(237.376894, 89.641621)"><g><path d="M 23.34375 -9.296875 C 23.34375 -7.640625 22.921875 -6.066406 22.078125 -4.578125 C 21.242188 -3.085938 19.941406 -1.878906 18.171875 -0.953125 C 16.410156 -0.0351562 14.128906 0.421875 11.328125 0.421875 C 9.929688 0.421875 8.707031 0.359375 7.65625 0.234375 C 6.601562 0.109375 5.625 -0.09375 4.71875 -0.375 C 3.8125 -0.664062 2.867188 -1.046875 1.890625 -1.515625 L 1.890625 -8.890625 C 3.546875 -8.046875 5.21875 -7.40625 6.90625 -6.96875 C 8.601562 -6.53125 10.132812 -6.3125 11.5 -6.3125 C 12.320312 -6.3125 12.992188 -6.40625 13.515625 -6.59375 C 14.046875 -6.789062 14.4375 -7.0625 14.6875 -7.40625 C 14.9375 -7.75 15.0625 -8.144531 15.0625 -8.59375 C 15.0625 -9.125 14.875 -9.570312 14.5 -9.9375 C 14.132812 -10.3125 13.546875 -10.703125 12.734375 -11.109375 C 11.921875 -11.515625 10.851562 -12.015625 9.53125 -12.609375 C 8.394531 -13.140625 7.367188 -13.679688 6.453125 -14.234375 C 5.546875 -14.796875 4.765625 -15.4375 4.109375 -16.15625 C 3.460938 -16.875 2.960938 -17.71875 2.609375 -18.6875 C 2.265625 -19.65625 2.09375 -20.796875 2.09375 -22.109375 C 2.09375 -24.078125 2.578125 -25.726562 3.546875 -27.0625 C 4.515625 -28.394531 5.867188 -29.394531 7.609375 -30.0625 C 9.347656 -30.726562 11.359375 -31.0625 13.640625 -31.0625 C 15.640625 -31.0625 17.4375 -30.835938 19.03125 -30.390625 C 20.632812 -29.953125 22.070312 -29.445312 23.34375 -28.875 L 20.796875 -22.484375 C 19.484375 -23.078125 18.191406 -23.550781 16.921875 -23.90625 C 15.648438 -24.269531 14.472656 -24.453125 13.390625 -24.453125 C 12.671875 -24.453125 12.082031 -24.363281 11.625 -24.1875 C 11.175781 -24.007812 10.84375 -23.773438 10.625 -23.484375 C 10.414062 -23.191406 10.3125 -22.859375 10.3125 -22.484375 C 10.3125 -22.003906 10.492188 -21.578125 10.859375 -21.203125 C 11.234375 -20.828125 11.851562 -20.414062 12.71875 -19.96875 C 13.59375 -19.53125 14.785156 -18.960938 16.296875 -18.265625 C 17.796875 -17.597656 19.066406 -16.875 20.109375 -16.09375 C 21.160156 -15.320312 21.960938 -14.394531 22.515625 -13.3125 C 23.066406 -12.226562 23.34375 -10.890625 23.34375 -9.296875 Z M 23.34375 -9.296875 "/></g></g></g><g fill="#ff0707" fill-opacity="1"><g transform="translate(126.64754, 51.472569)"><g><path d="M 1.941406 0 L 1.941406 -2.914062 L 4.9375 -2.914062 L 4.9375 -4.085938 L 1.941406 -4.085938 L 1.941406 -5.808594 L 5.285156 -5.808594 L 5.285156 -6.988281 L 0.621094 -6.988281 L 0.621094 0 Z M 1.941406 0 "/></g></g></g><g fill="#ff0707" fill-opacity="1"><g transform="translate(139.506251, 51.472569)"><g><path d="M 1.449219 0 L 1.914062 -1.4375 L 4.578125 -1.4375 L 5.054688 0 L 6.4375 0 L 3.976562 -6.988281 L 2.527344 -6.988281 L 0.0625 0 Z M 3.25 -5.550781 L 4.214844 -2.59375 L 2.289062 -2.59375 Z M 3.25 -5.550781 "/></g></g></g><g fill="#ff0707" fill-opacity="1"><g transform="translate(153.33478, 51.472569)"><g><path d="M 4.753906 -3.03125 C 5.433594 -3.351562 5.851562 -4.011719 5.851562 -4.929688 C 5.851562 -6.375 4.945312 -6.988281 3.636719 -6.988281 L 0.621094 -6.988281 L 0.621094 0 L 1.941406 0 L 1.941406 -2.792969 L 3.5 -2.792969 L 4.609375 0 L 6.007812 0 Z M 3.453125 -5.808594 C 4.148438 -5.808594 4.542969 -5.476562 4.542969 -4.882812 C 4.542969 -4.269531 4.160156 -3.949219 3.453125 -3.949219 L 1.941406 -3.949219 L 1.941406 -5.808594 Z M 3.453125 -5.808594 "/></g></g></g><g fill="#ff0707" fill-opacity="1"><g transform="translate(166.971169, 51.472569)"><g><path d="M 1.941406 0 L 1.941406 -5.964844 L 3.609375 0 L 4.902344 0 L 6.566406 -6 L 6.566406 0 L 7.886719 0 L 7.886719 -6.988281 L 5.6875 -6.988281 L 4.25 -1.59375 L 2.804688 -6.988281 L 0.621094 -6.988281 L 0.621094 0 Z M 1.941406 0 "/></g></g></g><g fill="#ff0707" fill-opacity="1"><g transform="translate(182.80339, 51.472569)"><g><path d="M 3.65625 -7.484375 L 5.027344 -8.839844 L 3.753906 -8.839844 L 2.703125 -7.484375 Z M 1.449219 0 L 1.914062 -1.4375 L 4.578125 -1.4375 L 5.054688 0 L 6.4375 0 L 3.976562 -6.988281 L 2.527344 -6.988281 L 0.0625 0 Z M 3.25 -5.550781 L 4.214844 -2.59375 L 2.289062 -2.59375 Z M 3.25 -5.550781 "/></g></g></g><g fill="#ff0707" fill-opacity="1"><g transform="translate(196.631919, 51.472569)"><g><path d="M 3.746094 0.128906 C 5.46875 0.128906 6.523438 -0.824219 6.714844 -2.273438 L 5.277344 -2.273438 C 5.140625 -1.449219 4.535156 -1.054688 3.710938 -1.054688 C 2.425781 -1.054688 1.730469 -2.042969 1.730469 -3.5 C 1.730469 -4.945312 2.425781 -5.9375 3.710938 -5.9375 C 4.535156 -5.9375 5.148438 -5.542969 5.277344 -4.800781 L 6.714844 -4.800781 C 6.523438 -6.171875 5.46875 -7.117188 3.746094 -7.117188 C 1.429688 -7.117188 0.355469 -5.433594 0.355469 -3.5 C 0.355469 -1.566406 1.429688 0.128906 3.746094 0.128906 Z M 3.746094 0.128906 "/></g></g></g><g fill="#ff0707" fill-opacity="1"><g transform="translate(210.981956, 51.472569)"><g><path d="M 1.941406 0 L 1.941406 -6.988281 L 0.621094 -6.988281 L 0.621094 0 Z M 1.941406 0 "/></g></g></g><g fill="#ff0707" fill-opacity="1"><g transform="translate(220.8763, 51.472569)"><g><path d="M 1.449219 0 L 1.914062 -1.4375 L 4.578125 -1.4375 L 5.054688 0 L 6.4375 0 L 3.976562 -6.988281 L 2.527344 -6.988281 L 0.0625 0 Z M 3.25 -5.550781 L 4.214844 -2.59375 L 2.289062 -2.59375 Z M 3.25 -5.550781 "/></g></g></g><g fill="#000000" fill-opacity="1"><g transform="translate(291.107009, 90.614945)"><g><path d="M 0 -7.511719 L -1.519531 -7.511719 L -1.519531 -2.738281 L -10.9375 -2.738281 L -10.9375 -1.046875 L 0 -1.046875 Z M 0 -7.511719 "/></g></g></g><g fill="#000000" fill-opacity="1"><g transform="translate(291.107009, 84.063954)"><g><path d="M 0 -5.375 L -9.417969 -5.375 L -9.417969 -8.902344 L -10.9375 -8.902344 L -10.9375 -0.171875 L -9.417969 -0.171875 L -9.417969 -3.683594 L 0 -3.683594 Z M 0 -5.375 "/></g></g></g><g fill="#000000" fill-opacity="1"><g transform="translate(291.107009, 76.136743)"><g><path d="M 0 -4.144531 C 0 -7.8125 -1.964844 -9.820312 -5.449219 -9.820312 C -8.960938 -9.820312 -10.9375 -7.8125 -10.9375 -4.15625 L -10.9375 -1.046875 L 0 -1.046875 Z M -9.417969 -2.738281 L -9.417969 -4.128906 C -9.417969 -6.507812 -8.316406 -8.128906 -5.449219 -8.128906 C -2.367188 -8.128906 -1.519531 -6.367188 -1.519531 -4.128906 L -1.519531 -2.738281 Z M -9.417969 -2.738281 "/></g></g></g><g fill="#000000" fill-opacity="1"><g transform="translate(291.107009, 66.818972)"><g><path d="M 0 -1.90625 L -2.464844 -2.753906 L -2.464844 -7.3125 L 0 -8.15625 L 0 -9.90625 L -10.9375 -5.964844 L -10.9375 -4.085938 L 0 -0.144531 Z M -9.148438 -5.03125 L -3.957031 -6.796875 L -3.957031 -3.269531 Z M -9.148438 -5.03125 "/></g></g></g></svg>